<svg xmlns="http://www.w3.org/2000/svg" xmlns:cc="http://creativecommons.org/ns#" xmlns:dc="http://purl.org/dc/elements/1.1/" xmlns:rdf="http://www.w3.org/1999/02/22-rdf-syntax-ns#" width="942" height="942" version="1.1" viewBox="0 0 233.99 234">
 
 <title>Repl.it logo</title>
 <g>
  <path d="m226.56 76.155c7.614 115.44-114.02 99.593-114.02 99.593 83.534 1.182 118.76-157.13-16.774-173.74 7-1.313 14.102-1.986 21.22-2.013 50.276 0 93.02 31.718 109.57 76.155z" fill="#2b74b6"/>
  <path d="m174.63 123.72s28.728-120.9-100.58-115.5c-43.362 17.099-74.058 59.215-74.058 108.57 0.04 5.315 0.442 10.62 1.203 15.882 27.214-136.78 182.25-92.482 173.44-8.957z" fill="#aa3a37"/>
  <path xmlns="http://www.w3.org/2000/svg" d="m7.7474 159.36c-1.867-132.17 119.56-98.317 119.56-98.317-83.342-12.133-135.13 139.94 1.11 172.38-3.788 0.372-7.63 0.58-11.52 0.58-0.1 0-0.198-8e-3 -0.295-0.016-0.097-7e-3 -0.195-0.015-0.293-0.015-5.16-0.06-10.31-0.46-15.418-1.196a130.5 130.5 0 0 1-4.502-0.688c-4.922-0.83-9.786-1.98-14.56-3.437-0.56-0.175-1.098-0.383-1.637-0.59l-6e-3 -3e-3 -0.01-4e-3c-0.414-0.16-0.827-0.32-1.25-0.463a115.58 115.58 0 0 1-11.698-4.74l-0.878-0.412a93.122 93.122 0 0 1-3.035-1.47 116.38 116.38 0 0 1-12.81-7.592c-0.325-0.225-0.64-0.467-0.954-0.71l-0.016-0.01-5e-3 -5e-3c-0.263-0.2-0.527-0.403-0.798-0.596a117.28 117.28 0 0 1-11.096-9.027c-0.205-0.19-0.413-0.377-0.62-0.563l-0.036-0.032-3e-3 -2e-3 -0.017-0.016c-0.305-0.274-0.61-0.547-0.91-0.83a117.06 117.06 0 0 1-28.298-42.223z" fill="#9cac36"/>
  <path d="m157.75 226.18c-130.41-1.04-97.876-120.72-97.876-120.72-13.302 82.982 139.12 136.02 173.58 0.617 0.32 3.537 0.543 7.107 0.543 10.726 0 0.442-0.03 0.877-0.062 1.31v0.015c-0.03 0.387-0.057 0.774-0.063 1.165-0.07 3.177-0.165 6.348-0.48 9.457-4.57 44.944-34.72 82.224-75.64 97.43z" fill="#42b337"/>
 </g>
 <g transform="matrix(1.0033 0 0 1.0015 60.252 159.74)" stroke-width=".27919">
  <g fill="#56676e">
   <path d="m87.138-54.274c2.1258 32.231-31.834 27.806-31.834 27.806 23.322 0.33001 33.157-43.869-4.6832-48.506 1.9544-0.36658 3.9372-0.55448 5.9245-0.56202 14.037 0 25.971 8.8554 30.592 21.262z"/>
   <path d="m72.639-40.994s8.0207-33.754-28.082-32.246c-12.106 4.7739-20.676 16.532-20.676 30.313 0.01117 1.4839 0.1234 2.965 0.33587 4.4341 7.598-38.188 50.884-25.82 48.423-2.5007z"/>
   <path d="m26.046-31.044c-0.52125-36.9 33.379-27.449 33.379-27.449-23.269-3.3875-37.727 39.071 0.3099 48.126-1.0576 0.10386-2.1302 0.16193-3.2163 0.16193-0.02792 0-0.05528-0.0022-0.08236-0.0045-0.02708-2e-3 -0.05444-0.0042-0.0818-0.0042-1.4406-0.01675-2.8785-0.12843-4.3046-0.33392a36.435 36.435 0 0 1-1.2569-0.19208c-1.3742-0.23173-2.7322-0.5528-4.0651-0.95959-0.15635-0.04886-0.30655-0.10693-0.45704-0.16472l-0.0017-8.37e-4 -0.0028-0.0011c-0.11559-0.04467-0.23089-0.08934-0.34899-0.12927a32.27 32.27 0 0 1-3.266-1.3234l-0.24513-0.11503a25.999 25.999 0 0 1-0.84735-0.41041 32.492 32.492 0 0 1-3.5765-2.1196c-0.09074-0.06282-0.17868-0.13038-0.26635-0.19823l-0.0045-0.0028-0.0014-0.0014c-0.07343-0.05584-0.14714-0.11252-0.2228-0.1664a32.743 32.743 0 0 1-3.0979-2.5203c-0.05723-0.05305-0.11531-0.10526-0.1731-0.15719l-0.01005-0.0089-8.38e-4 -5.58e-4 -0.0047-0.0045c-0.08515-0.0765-0.17031-0.15272-0.25407-0.23173a32.682 32.682 0 0 1-7.9006-11.788z"/>
   <path d="m67.925-12.388c-36.411-0.29036-27.326-33.703-27.326-33.703-3.7138 23.168 38.842 37.975 48.462 0.17226 0.08934 0.98751 0.1516 1.9842 0.1516 2.9946 0 0.1234-0.0084 0.24485-0.01731 0.36574v0.0042c-0.0084 0.10805-0.01591 0.2161-0.01759 0.32526-0.01954 0.887-0.04607 1.7723-0.13401 2.6403-1.2759 12.548-9.6936 22.956-21.118 27.202z"/>
  </g>
  <path d="m65.693-42.924c0 1.8064-0.53689 3.5728-1.5423 5.0749a9.1461 9.1461 0 0 1-4.1069 3.3643 9.1676 9.1676 0 0 1-5.2865 0.5193 9.1561 9.1561 0 0 1-4.6849-2.5007 9.1204 9.1204 0 0 1-1.9814-9.9552 9.1416 9.1416 0 0 1 3.3713-4.0986 9.1617 9.1617 0 0 1 5.0841-1.5375 9.1564 9.1564 0 0 1 6.4681 2.6761 9.1257 9.1257 0 0 1 2.6789 6.4577z" fill="#4e4f50"/>
 </g>
</svg>
